<?xml version="1.0" encoding="utf-8"?>
<!-- Generator: Adobe Illustrator 21.0.0, SVG Export Plug-In . SVG Version: 6.00 Build 0)  -->
<svg version="1.1" id="Layer_1" xmlns="http://www.w3.org/2000/svg" xmlns:xlink="http://www.w3.org/1999/xlink" x="0px" y="0px"
	 viewBox="0 0 128 128" style="enable-background:new 0 0 128 128;" xml:space="preserve">
<style type="text/css">
	.st0{fill:#CFF1FB;}
	.st1{fill:#91DEF5;}
	.st2{fill:#F6F7F7;}
	.st3{fill:#FFCFB8;}
	.st4{fill:#FFA77B;}
	.st5{fill:#E9EAEB;}
	.st6{fill:#746887;}
	.st7{fill:#F98770;}
	.st8{fill:#9B9B9B;}
	.st9{fill:#FFDDCF;}
	.st10{fill:#FFFFFF;}
	.st11{fill:#B7B7B7;}
	.st12{fill:#FFBC99;}
	.st13{fill:#DBDCDE;}
	.st14{fill:#FECFBA;}
	.st15{fill:#D0F1FA;}
	.st16{fill:#FDA77F;}
	.st17{fill:#94DEF4;}
</style>
<g>
	<g>
		<path class="st2" d="M123.5,20.5H97.024l0,46.579H84.091V20.5H4.5c-1.657,0-3,1.343-3,3V123.5c0,1.657,1.343,3,3,3h119
			c1.657,0,3-1.343,3-3V23.5C126.5,21.844,125.157,20.5,123.5,20.5z"/>
		<polygon class="st3" points="97.024,67.079 84.091,67.079 84.091,47.22 14,47.22 14,91.208 114,91.208 114,47.22 97.024,47.22 		
			"/>
		<path class="st0" d="M90.557,1.499c-3.571,0.003-6.466,2.898-6.466,6.466v59.114h12.933l0-59.114
			C97.024,4.397,94.128,1.502,90.557,1.499z"/>
		<path class="st4" d="M1.5,23.482v10.934h82.591V20.5H4.482C2.832,20.5,1.5,21.832,1.5,23.482z"/>
		<path class="st4" d="M123.518,20.5H97.024v13.916H126.5V23.482C126.5,21.832,125.168,20.5,123.518,20.5z"/>
		<polygon class="st4" points="90.526,78.149 97.024,67.076 84.091,67.076 		"/>
		<path class="st4" d="M90.557,1.5c-3.446,0-6.255,2.698-6.448,6.097h12.896C96.813,4.198,94.004,1.5,90.557,1.5z"/>
	</g>
	<g>
		<path class="st7" d="M84.091,19H4.482C2.011,19,0,21.011,0,23.482v10.934c0,0.828,0.672,1.5,1.5,1.5h82.591
			c0.828,0,1.5-0.672,1.5-1.5V20.5C85.591,19.672,84.919,19,84.091,19z M82.591,32.916H3v-9.434C3,22.665,3.665,22,4.482,22h78.108
			V32.916z"/>
		<path class="st7" d="M123.518,19H97.023c-0.828,0-1.5,0.672-1.5,1.5v13.916c0,0.828,0.672,1.5,1.5,1.5H126.5
			c0.828,0,1.5-0.672,1.5-1.5V23.482C128,21.011,125.989,19,123.518,19z M125,32.916H98.523V22h24.994
			c0.817,0,1.482,0.665,1.482,1.482V32.916z"/>
		<path class="st6" d="M123.5,19H97.023c-0.828,0-1.5,0.672-1.5,1.5v45.079h-9.933V20.5c0-0.828-0.672-1.5-1.5-1.5H4.5
			C2.019,19,0,21.019,0,23.5v19.235c0,0.828,0.672,1.5,1.5,1.5s1.5-0.672,1.5-1.5V23.5C3,22.673,3.673,22,4.5,22h78.091v45.079
			c0,0.828,0.672,1.5,1.5,1.5h12.933c0.828,0,1.5-0.672,1.5-1.5V22H123.5c0.827,0,1.5,0.673,1.5,1.5v100c0,0.827-0.673,1.5-1.5,1.5
			h-8.063c-0.828,0-1.5,0.672-1.5,1.5s0.672,1.5,1.5,1.5h8.063c2.481,0,4.5-2.019,4.5-4.5v-100C128,21.019,125.981,19,123.5,19z"/>
		<path class="st6" d="M107.737,125H4.5c-0.827,0-1.5-0.673-1.5-1.5V50.672c0-0.828-0.672-1.5-1.5-1.5S0,49.844,0,50.672V123.5
			c0,2.481,2.019,4.5,4.5,4.5h103.237c0.828,0,1.5-0.672,1.5-1.5S108.565,125,107.737,125z"/>
		<path class="st6" d="M14.422,25.958h-2.982c-0.828,0-1.5,0.672-1.5,1.5s0.672,1.5,1.5,1.5h2.982c0.828,0,1.5-0.672,1.5-1.5
			S15.25,25.958,14.422,25.958z"/>
		<path class="st6" d="M23.367,25.958h-2.981c-0.828,0-1.5,0.672-1.5,1.5s0.672,1.5,1.5,1.5h2.981c0.828,0,1.5-0.672,1.5-1.5
			S24.195,25.958,23.367,25.958z"/>
		<path class="st7" d="M114,45.721H97.023c-0.828,0-1.5,0.672-1.5,1.5v18.358h-9.933V47.221c0-0.828-0.672-1.5-1.5-1.5H14
			c-0.828,0-1.5,0.672-1.5,1.5v43.987c0,0.828,0.672,1.5,1.5,1.5h100c0.828,0,1.5-0.672,1.5-1.5V72.23c0-0.828-0.672-1.5-1.5-1.5
			s-1.5,0.672-1.5,1.5v17.478h-97V48.721h67.091v18.358c0,0.828,0.672,1.5,1.5,1.5h12.933c0.828,0,1.5-0.672,1.5-1.5V48.721H112.5
			V64.34c0,0.828,0.672,1.5,1.5,1.5s1.5-0.672,1.5-1.5V47.221C115.5,46.393,114.828,45.721,114,45.721z"/>
		<path class="st7" d="M90.558,6.096c-0.828,0-1.5,0.672-1.5,1.5v59.48c0,0.828,0.672,1.5,1.5,1.5s1.5-0.672,1.5-1.5V7.596
			C92.058,6.768,91.386,6.096,90.558,6.096z"/>
		<path class="st6" d="M90.557-0.001c-4.393,0.004-7.966,3.577-7.966,7.967v59.113c0,0.828,0.672,1.5,1.5,1.5h12.933
			c0.828,0,1.5-0.672,1.5-1.5V7.966C98.523,3.576,94.95,0.003,90.557-0.001z M95.523,65.579h-9.933V7.966
			c0-2.736,2.229-4.965,4.966-4.967c2.738,0.002,4.967,2.23,4.967,4.967V65.579z"/>
		<path class="st6" d="M97.024,65.576H84.091c-0.537,0-1.032,0.287-1.3,0.752s-0.267,1.038,0.003,1.502l6.435,11.073
			c0.268,0.461,0.761,0.745,1.294,0.746c0.001,0,0.002,0,0.003,0c0.532,0,1.024-0.282,1.294-0.741l6.499-11.073
			c0.271-0.463,0.275-1.037,0.008-1.504S97.562,65.576,97.024,65.576z M90.532,75.175l-3.835-6.599h7.707L90.532,75.175z"/>
		<path class="st6" d="M90.558,0c-4.216,0-7.706,3.3-7.946,7.512c-0.023,0.412,0.124,0.815,0.407,1.115
			c0.284,0.3,0.678,0.47,1.091,0.47h12.896c0.412,0,0.807-0.17,1.09-0.47c0.284-0.3,0.431-0.703,0.408-1.115
			C98.264,3.3,94.774,0,90.558,0z M85.963,6.097C86.703,4.274,88.49,3,90.558,3s3.854,1.274,4.595,3.097H85.963z"/>
		<path class="st6" d="M108,102.5H16c-0.828,0-1.5,0.672-1.5,1.5s0.672,1.5,1.5,1.5h92c0.828,0,1.5-0.672,1.5-1.5
			S108.828,102.5,108,102.5z"/>
		<path class="st6" d="M108,114.5H16c-0.828,0-1.5,0.672-1.5,1.5s0.672,1.5,1.5,1.5h92c0.828,0,1.5-0.672,1.5-1.5
			S108.828,114.5,108,114.5z"/>
		<path class="st6" d="M68,54.5H24c-0.828,0-1.5,0.672-1.5,1.5s0.672,1.5,1.5,1.5h44c0.828,0,1.5-0.672,1.5-1.5S68.828,54.5,68,54.5
			z"/>
		<path class="st6" d="M68,66.5H24c-0.828,0-1.5,0.672-1.5,1.5s0.672,1.5,1.5,1.5h44c0.828,0,1.5-0.672,1.5-1.5S68.828,66.5,68,66.5
			z"/>
		<path class="st6" d="M68,78.5H24c-0.828,0-1.5,0.672-1.5,1.5s0.672,1.5,1.5,1.5h44c0.828,0,1.5-0.672,1.5-1.5S68.828,78.5,68,78.5
			z"/>
	</g>
</g>
<g>
</g>
</svg>
